<svg xmlns="http://www.w3.org/2000/svg" viewBox="0 0 64 64" fill="none">
  <rect width="64" height="64" rx="18" fill="#f6fbfb"/>
  <path d="M35 12C15.5 12 9 26.5 9 37.5C9 52.6 19.8 60 35 60c8.7 0 16.2-3.2 21.8-9.3" fill="none" stroke="#4bc7c3" stroke-width="10" stroke-linecap="round"/>
  <path d="M47 11.8h3.8" stroke="#4bc7c3" stroke-width="10" stroke-linecap="round"/>
  <g transform="translate(34 5)">
    <rect x="0" y="8" width="10" height="10" rx="2.8" transform="rotate(-45 0 8)" fill="#53bda7"/>
    <rect x="8" y="8" width="10" height="10" rx="2.8" transform="rotate(-45 8 8)" fill="#4caaa0"/>
    <rect x="0" y="16" width="10" height="10" rx="2.8" transform="rotate(-45 0 16)" fill="#f5be3c"/>
    <rect x="8" y="16" width="10" height="10" rx="2.8" transform="rotate(-45 8 16)" fill="#f1c54b"/>
  </g>
</svg>
